<?xml version="1.0" encoding="UTF-8"?>
<svg id="Layer_1" data-name="Layer 1" xmlns="http://www.w3.org/2000/svg" viewBox="0 0 400 400">
  <defs>
    <style>
      .cls-1 {
        fill: #ce1f3e;
      }

      .cls-2 {
        fill: #22505f;
      }
    </style>
  </defs>
  <path class="cls-1" d="M199.92,290.94c50.29,0,91.04-40.72,91.04-91.04s-40.75-91.04-91.04-91.04-91.04,40.75-91.04,91.04,40.75,91.04,91.04,91.04"/>
  <path class="cls-2" d="M200,0C89.57,0,0,89.28,0,200s89.57,200,200,200,200-89.57,200-200S310.43,0,200,0ZM200,321.29c-66.96,0-121.59-54.33-121.59-121.29s54.62-121.58,121.59-121.58,121.29,54.33,121.29,121.58-54.33,121.29-121.29,121.29Z"/>
</svg>