<?xml version="1.0" encoding="UTF-8"?>
<svg id="Layer_1" data-name="Layer 1" xmlns="http://www.w3.org/2000/svg" viewBox="0 0 512 512">
  <defs>
    <style>
      .cls-1 {
        fill: #fff;
      }

      .cls-2 {
        fill: #ce1f3e;
      }

      .cls-3 {
        fill: #22505f;
      }
    </style>
  </defs>
  <circle class="cls-1" cx="256" cy="256" r="225"/>
  <g>
    <path class="cls-2" d="M255.92,345.07c49.25,0,89.17-39.88,89.17-89.17s-39.91-89.17-89.17-89.17-89.17,39.92-89.17,89.17,39.91,89.17,89.17,89.17"/>
    <path class="cls-3" d="M256,60.12c-108.15,0-195.88,87.44-195.88,195.88s87.73,195.88,195.88,195.88,195.88-87.73,195.88-195.88S364.15,60.12,256,60.12ZM256,374.8c-65.58,0-119.08-53.21-119.08-118.8s53.5-119.08,119.08-119.08,118.79,53.21,118.79,119.08-53.21,118.8-118.79,118.8Z"/>
  </g>
</svg>