<?xml version="1.0" encoding="UTF-8"?>
<svg id="Layer_1" data-name="Layer 1" xmlns="http://www.w3.org/2000/svg" viewBox="0 0 920 920">
  <defs>
    <style>
      .cls-1 {
        stroke: #ce1f3e;
      }

      .cls-1, .cls-2 {
        fill: none;
        stroke-miterlimit: 10;
        stroke-width: 1.5px;
      }

      .cls-2 {
        stroke: #22505f;
      }
    </style>
  </defs>
  <path class="cls-1" d="M315.92,603.85c79.57,79.57,208.49,79.62,288.12,0,79.57-79.57,79.57-208.54,0-288.12-79.57-79.57-208.54-79.57-288.12,0-79.62,79.62-79.57,208.54,0,288.12"/>
  <path class="cls-2" d="M776.41,143.62c-174.73-174.73-457.74-175.19-632.93,0-174.73,174.73-174.73,458.2,0,632.93,174.73,174.73,458.2,174.73,632.93,0,175.19-175.19,174.73-458.2,0-632.93ZM268.02,652.01c-105.95-105.95-106.42-278.36-.46-384.31,106.42-106.42,278.82-105.95,384.77,0,105.95,105.95,105.95,277.89-.46,384.31-105.95,105.95-277.89,105.95-383.84,0Z"/>
</svg>