<?xml version="1.0" encoding="UTF-8"?>
<svg id="Layer_1" data-name="Layer 1" xmlns="http://www.w3.org/2000/svg" viewBox="0 0 780 60">
  <defs>
    <style>
      .cls-1 {
        fill: #fff;
      }

      .cls-2 {
        fill: #ce1f3e;
      }
    </style>
  </defs>
  <path class="cls-2" d="M77.05,41.28c6.27,0,11.35-5.08,11.35-11.35s-5.08-11.35-11.35-11.35-11.35,5.08-11.35,11.35,5.08,11.35,11.35,11.35"/>
  <path class="cls-1" d="M752.55,18.88v-.13c0-2.35,2.13-4.21,6.21-4.21s8.29,1.8,12.57,4.77l5.53-8.01c-4.9-3.93-10.91-6.14-17.96-6.14-9.87,0-16.92,5.8-16.92,14.57v.14c0,9.6,6.28,12.29,16.02,14.78,8.08,2.07,9.73,3.45,9.73,6.14v.14c0,2.83-2.62,4.56-6.97,4.56-5.53,0-10.08-2.28-14.43-5.87l-6.28,7.53c5.8,5.18,13.19,7.73,20.51,7.73,10.43,0,17.75-5.39,17.75-14.99v-.14c0-8.43-5.53-11.95-15.34-14.5-8.36-2.14-10.42-3.18-10.42-6.36"/>
  <polygon class="cls-1" points="717.22 15.63 731.92 15.63 731.92 5.83 691.87 5.83 691.87 15.63 706.58 15.63 706.58 54.17 717.22 54.17 717.22 15.63"/>
  <path class="cls-1" d="M649.6,30v-.14c0-8.29,5.87-15.06,14.02-15.06,4.83,0,8.63,2.07,12.36,5.46l6.77-7.8c-4.5-4.42-9.95-7.46-19.06-7.46-14.85,0-25.21,11.26-25.21,25v.13c0,13.88,10.57,24.87,24.8,24.87,9.32,0,14.84-3.32,19.82-8.63l-6.77-6.84c-3.8,3.46-7.19,5.67-12.71,5.67-8.29,0-14.02-6.9-14.02-15.19"/>
  <polygon class="cls-1" points="591.83 54.17 628.65 54.17 628.65 44.71 602.41 44.71 602.41 34.56 625.19 34.56 625.19 25.1 602.41 25.1 602.41 15.29 628.3 15.29 628.3 5.83 591.83 5.83 591.83 54.17"/>
  <polygon class="cls-1" points="566.7 15.63 581.41 15.63 581.41 5.83 541.36 5.83 541.36 15.63 556.06 15.63 556.06 54.17 566.7 54.17 566.7 15.63"/>
  <rect class="cls-1" x="520.29" y="5.83" width="10.64" height="48.34"/>
  <polygon class="cls-1" points="495.79 54.17 506.43 54.17 506.43 5.83 495.79 5.83 495.79 24.96 476.18 24.96 476.18 5.83 465.55 5.83 465.55 54.17 476.18 54.17 476.18 34.77 495.79 34.77 495.79 54.17"/>
  <path class="cls-1" d="M421.81,30v-.14c0-8.29,5.87-15.06,14.02-15.06,4.83,0,8.63,2.07,12.37,5.46l6.76-7.8c-4.49-4.42-9.94-7.46-19.06-7.46-14.85,0-25.2,11.26-25.2,25v.13c0,13.88,10.57,24.87,24.79,24.87,9.33,0,14.85-3.32,19.83-8.63l-6.77-6.84c-3.8,3.46-7.18,5.67-12.7,5.67-8.29,0-14.02-6.9-14.02-15.19"/>
  <path class="cls-1" d="M391.23,36.9c6.15-2.27,10.36-7.17,10.36-14.97v-.15c0-4.58-1.43-8.35-4.14-11.05-3.19-3.18-7.94-4.9-14.09-4.9h-22.07v48.35h10.62v-15.48h8.35l10.36,15.48h12.45l-11.82-17.28ZM390.83,22.48c0,4.06-2.97,6.84-8.16,6.84h-10.76v-13.91h10.58c5.16,0,8.35,2.38,8.35,6.92v.15Z"/>
  <path class="cls-1" d="M330.14,5.49h-9.81l-20.72,48.68h10.83l4.43-10.83h20.43l4.43,10.83h11.13l-20.72-48.68ZM318.65,33.93l6.44-15.67,6.41,15.67h-12.85Z"/>
  <path class="cls-1" d="M248.79,55c8.84,0,15.68-3.46,20.65-7.67v-20.99h-21v9.18h10.71v6.91c-2.7,1.93-6.15,2.9-10.02,2.9-8.57,0-14.64-6.49-14.64-15.33v-.14c0-8.22,6.15-15.06,13.89-15.06,5.59,0,8.9,1.8,12.63,4.9l6.7-8.08c-5.04-4.28-10.29-6.63-18.99-6.63-14.64,0-25.34,11.26-25.34,25v.13c0,14.3,10.36,24.87,25.41,24.87"/>
  <polygon class="cls-1" points="202.72 54.17 211.76 54.17 211.76 5.83 201.27 5.83 201.27 35.59 178.62 5.83 168.81 5.83 168.81 54.17 179.31 54.17 179.31 23.44 202.72 54.17"/>
  <path class="cls-1" d="M154.95,33.1V5.83h-10.63v27.69c0,7.67-3.93,11.6-10.42,11.6s-10.43-4.07-10.43-11.94V5.83h-10.63v27.63c0,14.23,7.94,21.48,20.93,21.48s21.2-7.18,21.2-21.83"/>
  <path class="cls-1" d="M77.06,5.02c-13.76,0-24.93,11.13-24.93,24.93s11.16,24.93,24.93,24.93,24.93-11.16,24.93-24.93-11.16-24.93-24.93-24.93ZM77.06,45.06c-8.35,0-15.15-6.77-15.15-15.12s6.81-15.15,15.15-15.15,15.12,6.77,15.12,15.15-6.77,15.12-15.12,15.12Z"/>
  <polygon class="cls-1" points="30.9 34.9 49.48 5.83 37.39 5.83 25.65 25.23 14.12 5.83 1.68 5.83 20.26 35.11 20.26 54.17 30.9 54.17 30.9 34.9"/>
</svg>