<?xml version="1.0" encoding="UTF-8"?>
<svg id="Layer_1" data-name="Layer 1" xmlns="http://www.w3.org/2000/svg" viewBox="0 0 360 110">
  <defs>
    <style>
      .cls-1 {
        fill: #fff;
      }

      .cls-2 {
        fill: #ce1f3e;
      }

      .cls-3 {
        fill: #22505f;
      }
    </style>
  </defs>
  <g>
    <path class="cls-2" d="M55.44,77.94c12.69,0,22.97-10.27,22.97-22.97s-10.28-22.97-22.97-22.97-22.97,10.28-22.97,22.97,10.28,22.97,22.97,22.97"/>
    <path class="cls-3" d="M55.46,4.54C27.6,4.54,5,27.07,5,55s22.6,50.46,50.46,50.46,50.46-22.6,50.46-50.46S83.32,4.54,55.46,4.54ZM55.46,85.6c-16.89,0-30.67-13.71-30.67-30.6s13.78-30.67,30.67-30.67,30.6,13.71,30.6,30.67-13.71,30.6-30.6,30.6Z"/>
  </g>
  <g>
    <path class="cls-1" d="M342.37,67.41v-.07c0-1.15,1.05-2.07,3.05-2.07s4.07.88,6.16,2.34l2.71-3.93c-2.4-1.93-5.35-3.01-8.81-3.01-4.84,0-8.3,2.84-8.3,7.14v.07c0,4.71,3.08,6.03,7.86,7.25,3.96,1.01,4.77,1.69,4.77,3.01v.07c0,1.39-1.28,2.24-3.42,2.24-2.71,0-4.94-1.12-7.08-2.88l-3.08,3.69c2.84,2.54,6.47,3.79,10.06,3.79,5.11,0,8.7-2.64,8.7-7.35v-.07c0-4.13-2.71-5.86-7.52-7.11-4.1-1.05-5.11-1.56-5.11-3.12"/>
    <polygon class="cls-1" points="325.04 65.82 332.25 65.82 332.25 61.01 312.61 61.01 312.61 65.82 319.82 65.82 319.82 84.71 325.04 84.71 325.04 65.82"/>
    <path class="cls-1" d="M291.88,72.86v-.07c0-4.06,2.88-7.38,6.88-7.38,2.37,0,4.23,1.02,6.06,2.68l3.32-3.83c-2.2-2.17-4.88-3.66-9.35-3.66-7.28,0-12.36,5.52-12.36,12.26v.07c0,6.81,5.18,12.19,12.16,12.19,4.57,0,7.28-1.63,9.72-4.23l-3.32-3.35c-1.87,1.69-3.52,2.78-6.23,2.78-4.06,0-6.88-3.39-6.88-7.45"/>
    <polygon class="cls-1" points="263.56 84.71 281.61 84.71 281.61 80.07 268.74 80.07 268.74 75.1 279.92 75.1 279.92 70.46 268.74 70.46 268.74 65.65 281.44 65.65 281.44 61.01 263.56 61.01 263.56 84.71"/>
    <polygon class="cls-1" points="251.23 65.82 258.44 65.82 258.44 61.01 238.81 61.01 238.81 65.82 246.02 65.82 246.02 84.71 251.23 84.71 251.23 65.82"/>
    <rect class="cls-1" x="228.48" y="61.01" width="5.22" height="23.7"/>
    <polygon class="cls-1" points="216.46 84.71 221.68 84.71 221.68 61.01 216.46 61.01 216.46 70.39 206.85 70.39 206.85 61.01 201.63 61.01 201.63 84.71 206.85 84.71 206.85 75.2 216.46 75.2 216.46 84.71"/>
    <path class="cls-1" d="M180.19,72.86v-.07c0-4.06,2.88-7.38,6.87-7.38,2.37,0,4.23,1.02,6.06,2.68l3.32-3.83c-2.2-2.17-4.88-3.66-9.34-3.66-7.28,0-12.36,5.52-12.36,12.26v.07c0,6.81,5.18,12.19,12.15,12.19,4.57,0,7.28-1.63,9.72-4.23l-3.32-3.35c-1.86,1.69-3.52,2.78-6.23,2.78-4.06,0-6.87-3.39-6.87-7.45"/>
    <path class="cls-1" d="M165.19,76.24c3.02-1.11,5.08-3.52,5.08-7.34v-.07c0-2.24-.7-4.09-2.03-5.42-1.56-1.56-3.9-2.41-6.91-2.41h-10.82v23.71h5.21v-7.59h4.09l5.08,7.59h6.1l-5.8-8.47ZM164.99,69.17c0,1.99-1.45,3.36-4,3.36h-5.28v-6.82h5.19c2.53,0,4.09,1.17,4.09,3.39v.07Z"/>
    <path class="cls-1" d="M135.23,60.84h-4.81l-10.16,23.87h5.31l2.17-5.31h10.02l2.17,5.31h5.46l-10.16-23.87ZM129.6,74.79l3.16-7.68,3.14,7.68h-6.3Z"/>
    <path class="cls-1" d="M240.9,49.9c4.33,0,7.69-1.69,10.13-3.76v-10.29h-10.3v4.5h5.25v3.39c-1.32.95-3.01,1.42-4.91,1.42-4.2,0-7.18-3.18-7.18-7.52v-.07c0-4.03,3.01-7.38,6.81-7.38,2.74,0,4.37.88,6.2,2.4l3.28-3.96c-2.47-2.1-5.04-3.25-9.31-3.25-7.18,0-12.43,5.52-12.43,12.26v.07c0,7.01,5.08,12.19,12.46,12.19"/>
    <polygon class="cls-1" points="218.31 49.49 222.74 49.49 222.74 25.79 217.6 25.79 217.6 40.38 206.49 25.79 201.68 25.79 201.68 49.49 206.83 49.49 206.83 34.42 218.31 49.49"/>
    <path class="cls-1" d="M194.88,39.16v-13.38h-5.21v13.58c0,3.76-1.93,5.69-5.11,5.69s-5.12-2-5.12-5.86v-13.41h-5.21v13.55c0,6.98,3.9,10.53,10.26,10.53s10.39-3.52,10.39-10.7"/>
    <path class="cls-1" d="M156.69,25.39c-6.76,0-12.23,5.46-12.23,12.23s5.47,12.21,12.23,12.21,12.21-5.47,12.21-12.21-5.47-12.23-12.21-12.23ZM156.69,45.02c-4.09,0-7.43-3.31-7.43-7.4s3.34-7.43,7.43-7.43,7.42,3.31,7.42,7.43-3.33,7.4-7.42,7.4Z"/>
    <polygon class="cls-1" points="134.05 40.04 143.16 25.79 137.24 25.79 131.48 35.3 125.83 25.79 119.73 25.79 128.84 40.14 128.84 49.49 134.05 49.49 134.05 40.04"/>
  </g>
</svg>